<?xml version="1.0" standalone="no"?>
<!DOCTYPE svg PUBLIC "-//W3C//DTD SVG 20010904//EN"
 "http://www.w3.org/TR/2001/REC-SVG-20010904/DTD/svg10.dtd">
<svg version="1.0" xmlns="http://www.w3.org/2000/svg"
 width="1000.000000pt" height="1000.000000pt" viewBox="0 0 1000.000000 1000.000000"
 preserveAspectRatio="xMidYMid meet">

<g transform="translate(0.000000,1000.000000) scale(0.100000,-0.100000)"
fill="#000000" stroke="none">
<path d="M5222 3893 c-194 -209 -571 -980 -682 -1398 -49 -181 -43 -330 15
-395 12 -14 32 -39 44 -57 12 -17 29 -34 39 -37 9 -2 26 -7 37 -10 19 -5 20
-1 22 82 3 171 65 346 186 531 161 245 346 421 429 409 20 -3 23 -8 20 -38
-10 -98 -128 -250 -316 -406 l-50 -41 13 -74 c21 -118 78 -333 111 -417 36
-94 90 -176 133 -202 43 -27 128 -26 187 1 47 21 110 75 109 93 0 6 -28 31
-61 55 -112 82 -231 259 -293 438 l-24 67 67 32 c140 65 259 235 270 383 6 86
-12 142 -63 191 -31 30 -37 32 -76 26 -24 -4 -74 -23 -113 -44 -90 -46 -253
-207 -346 -339 -35 -51 -65 -91 -67 -89 -6 6 72 188 137 321 126 254 261 452
428 626 61 64 112 122 112 128 0 18 -30 72 -63 115 -35 44 -111 96 -141 96
-11 0 -40 -21 -64 -47z"/>
<path d="M8037 3873 c-121 -150 -259 -368 -361 -570 -139 -279 -279 -719 -322
-1013 -19 -136 -16 -188 18 -255 39 -80 52 -72 133 86 110 215 205 358 337
509 94 107 249 240 280 240 4 0 -16 -48 -44 -107 -121 -260 -198 -473 -198
-551 0 -80 58 -147 125 -145 35 1 197 72 209 92 4 6 4 20 1 32 -5 15 -11 18
-28 12 -12 -4 -38 -7 -57 -8 -30 0 -35 3 -38 26 -10 87 199 477 360 670 59 71
58 83 -16 139 -125 95 -216 94 -358 -1 -75 -50 -255 -228 -361 -357 -43 -51
-77 -88 -77 -83 0 21 70 222 110 316 134 317 293 560 540 827 l90 97 -32 24
c-18 14 -47 32 -65 41 -32 16 -144 46 -174 46 -9 0 -41 -30 -72 -67z"/>
<path d="M2575 3714 c-191 -20 -517 -35 -630 -28 l-104 7 -7 -37 c-18 -98 21
-164 112 -188 43 -12 44 -14 39 -43 -26 -131 -142 -465 -161 -465 -24 0 -173
-51 -179 -61 -11 -16 44 -79 83 -97 21 -9 38 -17 40 -18 1 -1 -2 -12 -7 -25
-6 -13 -51 -125 -100 -249 -49 -124 -106 -263 -126 -309 -22 -51 -34 -91 -31
-105 10 -38 94 -134 142 -162 l46 -27 146 23 c122 19 198 24 450 28 l302 4 0
66 c0 50 -6 81 -25 120 l-24 52 -53 0 c-103 0 -389 -38 -626 -84 l-73 -14 6
42 c13 76 76 269 147 449 54 137 75 180 91 186 59 21 270 43 390 39 l127 -3 6
33 c9 45 -2 101 -24 132 -44 60 -125 72 -318 47 l-92 -12 23 50 c129 288 187
406 207 422 24 19 232 38 420 38 l187 0 -6 25 c-13 57 -48 122 -80 150 -31 28
-39 30 -106 29 -40 -1 -126 -7 -192 -15z"/>
</g>
</svg>
