<svg xmlns="http://www.w3.org/2000/svg" version="1.1" xmlns:xlink="http://www.w3.org/1999/xlink" xmlns:svgjs="http://svgjs.dev/svgjs" width="1000" height="1000" viewBox="0 0 1000 1000"><rect width="1000" height="1000" fill="#4b91f1"></rect><g transform="matrix(0.7,0,0,0.7,150.29723206252254,182.4573313265372)"><svg viewBox="0 0 272 247" data-background-color="#4b91f1" preserveAspectRatio="xMidYMid meet" height="908" width="1000" xmlns="http://www.w3.org/2000/svg" xmlns:xlink="http://www.w3.org/1999/xlink"><g id="tight-bounds" transform="matrix(1,0,0,1,-0.1154957224183022,-0.10000131789595912)"><svg viewBox="0 0 272.23097519342457 247.2" height="247.2" width="272.23097519342457"><g><svg viewBox="0 0 395.52 359.1528992265887" height="247.2" width="272.23097519342457"><g><svg viewBox="0 0 395.52 359.1528992265887" height="359.1528992265887" width="395.52"><g id="textblocktransform"><svg viewBox="0 0 395.52 359.1528992265887" height="359.1528992265887" width="395.52" id="textblock"><g><svg viewBox="0 0 395.52 193.70991222937394" height="193.70991222937394" width="395.52"><g transform="matrix(1,0,0,1,0,0)"><svg width="395.52" viewBox="0.9000000357627869 -38.650001525878906 85.43999481201172 41.85000228881836" height="193.70991222937394" data-palette-color="#6dd3ff"><path d="M33.2-22.25L33.2-22.25Q34.35-22.25 34.35-20.8L34.35-20.8Q34.35-19.25 33.1-17.9L33.1-17.9Q30.9-15.45 29.05-11.75L29.05-11.75Q26.25-6.15 26.25-1.65L26.25-1.65Q26.25 0.1 26.88 0.9 27.5 1.7 28.3 1.7L28.3 1.7Q30.7 1.7 33.9-2.2L33.9-2.2Q36.75-5.85 38.25-9.3L38.25-9.3Q38.65-10.1 39.05-10 39.45-9.9 39.1-9.1L39.1-9.1Q37.05-4.55 34.45-1.1L34.45-1.1Q33.1 0.75 31.1 1.98 29.1 3.2 27.13 3.2 25.15 3.2 24.15 1.63 23.15 0.05 23.15-2.1 23.15-4.25 23.68-6.35 24.2-8.45 25.05-9.6L25.05-9.6Q20-3.55 14.3 0.1L14.3 0.1Q11.3 1.95 7.65 2.3L7.65 2.3Q7.3 2.35 6.48 2.35 5.65 2.35 4.5 1.75L4.5 1.75Q0.9 0.25 0.9-5.58 0.9-11.4 4.7-18.2L4.7-18.2Q6.7-21.8 9.1-24.55L9.1-24.55Q5.75-26.15 4.1-28L4.1-28Q2.9-29.35 2.9-31.25 2.9-33.15 3.65-33.65L3.65-33.65Q4.15-34.3 4.55-33.9L4.55-33.9Q4.85-33.45 4.58-32.8 4.3-32.15 4.3-31.55L4.3-31.55Q4.3-30.2 5.75-28.55 7.2-26.9 10-25.6L10-25.6Q21.75-38.65 34.4-38.65L34.4-38.65Q38.35-38.65 40.68-36.88 43-35.1 43-32.3L43-32.3Q43-29.25 39.6-26.4L39.6-26.4Q37.9-24.9 34.75-23.8L34.75-23.8Q29.95-22.1 23.33-22.1 16.7-22.1 12.35-23.5L12.35-23.5Q7.3-16.35 5.4-11.63 3.5-6.9 3.5-4.3L3.5-4.3Q3.5-3.75 3.55-3.3L3.55-3.3Q4.15 0.85 7.75 0.85L7.75 0.85Q11.8 0.85 17.15-3.55L17.15-3.55Q20.95-6.75 24.6-11.15 28.25-15.55 30.03-18.9 31.8-22.25 33.2-22.25ZM40.95-32.9L40.95-32.9Q40.95-35.05 39.18-36.2 37.4-37.35 34.3-37.35 31.2-37.35 28.13-36.35 25.05-35.35 22.38-33.4 19.7-31.45 17.63-29.4 15.55-27.35 13.15-24.5L13.15-24.5Q16.9-23.3 22.35-23.3L22.35-23.3Q32.6-23.3 37.3-26.6L37.3-26.6Q40.95-29.15 40.95-32.9ZM62.1-16.4L62.1-16.4Q56-5.55 56-2.4L56-2.4Q56-1 56.95-1L56.95-1Q58.15-1 59.7-2.8L59.7-2.8Q62.05-5.65 63.8-9.65L63.8-9.65Q64.1-10.35 64.4-10.2 64.7-10.05 64.7-9.8 64.7-9.55 64.2-8.55 63.7-7.55 63.4-6.95 63.1-6.35 62.07-4.65 61.05-2.95 60.32-2.15 59.6-1.35 58.47-0.58 57.35 0.2 55.92 0.2 54.5 0.2 53.5-1.2L53.5-1.2Q53.05-1.85 53.05-2.98 53.05-4.1 53.55-5.7 54.05-7.3 56.3-10.9L56.3-10.9Q56.85-11.8 56.85-12.33 56.85-12.85 56.02-12.85 55.2-12.85 53.05-10.85 50.9-8.85 48.52-5.45 46.15-2.05 45.7 0L45.7 0Q44.85 0 44.45-0.7 44.05-1.4 44.05-1.9L44.05-1.9Q44.05-3.95 46.8-9.7L46.8-9.7Q47.7-11.6 47.75-12.28 47.8-12.95 47.57-12.98 47.35-13 46.95-12.8L46.95-12.8Q46.05-12.35 44.2-10.6L44.2-10.6Q40.7-7.4 37.3-0.85L37.3-0.85Q37.05-0.3 36.67-0.18 36.3-0.05 35.2 0 34.1 0.05 33.75 0.25L33.75 0.25Q34.65-1.5 36.9-6.3L36.9-6.3Q40.95-14.9 42.3-16.2L42.3-16.2Q42.9-16.8 43.95-16.8L43.95-16.8Q44.15-16.8 44.97-16.65 45.8-16.5 46.2-16.6L46.2-16.6Q44.35-15.6 40.15-7.2L40.15-7.2Q42.5-10.1 43.52-11 44.55-11.9 45.05-12.35 45.55-12.8 45.82-13.05 46.1-13.3 46.62-13.78 47.15-14.25 47.42-14.48 47.7-14.7 48.2-15.1 48.7-15.5 48.97-15.63 49.25-15.75 49.72-16.05 50.2-16.35 50.42-16.35 50.65-16.35 51.05-16.48 51.45-16.6 51.6-16.4L51.6-16.4Q52.6-16 52.6-15.15L52.6-15.15Q52.6-14.4 50.9-11.3 49.2-8.2 48.7-7.2L48.7-7.2Q50.9-9.95 52.9-11.73 54.9-13.5 57.62-15 60.35-16.5 61.6-16.5L61.6-16.5Q61.9-16.5 62.1-16.4ZM70.65-19.45Q69.95-18.85 69.1-18.85 68.25-18.85 67.75-19.45 67.25-20.05 67.35-20.9L67.35-20.9Q67.5-21.75 68.2-22.35 68.9-22.95 69.75-22.95 70.6-22.95 71.12-22.35 71.65-21.75 71.5-20.9 71.35-20.05 70.65-19.45ZM65.75-1.1L65.75-1.1Q66.7-1.1 67.75-2.05L67.75-2.05Q69.6-3.9 72.45-9.6L72.45-9.6Q72.8-10.35 73.15-10.05L73.15-10.05Q73.25-9.95 73.25-9.73 73.25-9.5 72.85-8.63 72.45-7.75 72.12-7.05 71.8-6.35 70.87-4.78 69.95-3.2 69.2-2.35L69.2-2.35Q67.15 0 65.32 0 63.5 0 62.7-1.1 61.9-2.2 61.9-3.55 61.9-4.9 62.55-6.5L62.55-6.5 65.75-14.65Q65.85-14.95 65.85-15.45 65.85-15.95 65.25-16.75L65.25-16.75 68-16.8Q69.15-16.8 69.35-16.38 69.55-15.95 69.05-15.05L69.05-15.05 65.05-5.7Q64.2-3.85 64.2-2.55L64.2-2.55Q64.2-1.1 65.75-1.1ZM79.19-20.05L79.19-20.05Q79.19-17.8 76.34-15.8L76.34-15.8Q77.34-15.75 79.02-15.75 80.69-15.75 83.24-16L83.24-16Q83.34-15.85 83.34-15.2 83.34-14.55 82.74-13.28 82.14-12 81.67-11.08 81.19-10.15 80.77-9.33 80.34-8.5 79.82-7.3 79.29-6.1 78.94-5.1L78.94-5.1Q77.69-1.3 79.34-1.3L79.34-1.3Q81.44-1.3 85.54-9.65L85.54-9.65Q85.89-10.3 86.12-10.15 86.34-10 86.34-9.78 86.34-9.55 85.69-8.22 85.04-6.9 84.29-5.5 83.54-4.1 81.94-2.25L81.94-2.25Q80.04 0.05 78.29 0.05L78.29 0.05Q76.34 0.05 75.59-2.3L75.59-2.3Q75.44-2.75 75.44-3.65 75.44-4.55 76.02-6.05 76.59-7.55 77.84-9.7 79.09-11.85 79.24-12.23 79.39-12.6 79.39-12.95L79.39-12.95Q79.39-14.5 75.39-14.6L75.39-14.6 74.79-13Q71.64-4.75 68.74-1.95L68.74-1.95Q68.24-1.5 68.24-2.25L68.24-2.25Q68.24-2.4 68.34-2.6L68.34-2.6Q71.14-6.3 73.19-11.35 75.24-16.4 76.04-20.95L76.04-20.95Q76.34-22.5 77.44-22.5 78.54-22.5 79.04-21.1L79.04-21.1Q79.19-20.65 79.19-20.05Z" opacity="1" transform="matrix(1,0,0,1,0,0)" fill="#6dd3ff" class="wordmark-text-0" data-fill-palette-color="primary" id="text-0"></path></svg></g></svg></g><g transform="matrix(1,0,0,1,0,239.4401734688356)"><svg viewBox="0 0 395.52 119.7127257577531" height="119.7127257577531" width="395.52"><g transform="matrix(1,0,0,1,0,0)"><svg width="395.52" viewBox="5.400000095367432 -41.599998474121094 157.60000610351562 47.69999694824219" height="119.7127257577531" data-palette-color="#0718c4"><path d="M25.7-21.3L25.7-21.3Q27.35-21.3 28.28-20.4 29.2-19.5 29.2-17.9L29.2-17.9Q29.2-17.5 29.13-17.07 29.05-16.65 28.95-16.35L28.95-16.35Q28.3-16.45 27.5-16.53 26.7-16.6 25.6-16.6L25.6-16.6Q23.45-16.6 21.25-16.23 19.05-15.85 17.05-15.6L17.05-15.6Q15.9-12.95 14.95-10.48 14-8 13.33-5.95 12.65-3.9 12.28-2.4 11.9-0.9 11.85-0.15L11.85-0.15Q15.9-1 20.03-1.6 24.15-2.2 28.7-2.5L28.7-2.5Q29.25-1.65 29.63-0.65 30 0.35 30 1.5L30 1.5Q30 1.8 30 2.15 30 2.5 29.9 2.85L29.9 2.85Q28.5 2.8 26.95 2.78 25.4 2.75 22.9 2.75L22.9 2.75Q21.25 2.75 19.78 2.83 18.3 2.9 16.8 3.05 15.3 3.2 13.63 3.45 11.95 3.7 9.85 4.05L9.85 4.05Q7.55 3.15 5.4-0.35L5.4-0.35Q6.25-2.15 7.78-5.83 9.3-9.5 11.65-15.65L11.65-15.65Q9.4-16.35 8.7-18.15L8.7-18.15Q8.95-18.4 10.15-18.78 11.35-19.15 13.1-19.55L13.1-19.55Q13.85-21.5 14.38-22.95 14.9-24.4 15.3-25.68 15.7-26.95 16.03-28.18 16.35-29.4 16.65-30.85L16.65-30.85Q14.9-30.95 13.9-31.83 12.9-32.7 12.9-34.1L12.9-34.1Q12.9-34.5 13.03-35.05 13.15-35.6 13.3-36L13.3-36Q14.3-35.85 15.23-35.8 16.15-35.75 17.65-35.75L17.65-35.75Q20.8-35.75 23.55-35.93 26.3-36.1 28.53-36.3 30.75-36.5 32.35-36.68 33.95-36.85 34.8-36.85L34.8-36.85Q35.95-36.85 36.85-35.65 37.75-34.45 38.2-32.25L38.2-32.25Q36.65-32.4 35.68-32.45 34.7-32.5 33.95-32.5L33.95-32.5Q31.2-32.5 28.93-32.23 26.65-31.95 24.55-31.65L24.55-31.65Q24.25-31.2 23.88-30.5 23.5-29.8 22.9-28.55 22.3-27.3 21.43-25.4 20.55-23.5 19.3-20.65L19.3-20.65Q21.2-20.95 22.88-21.13 24.55-21.3 25.7-21.3ZM73.15-4.7L73.15-4.7Q73.15-6.5 74.07-9.7 75-12.9 76.5-16.7 78-20.5 79.9-24.55 81.8-28.6 83.72-32.1 85.65-35.6 87.42-38.15 89.2-40.7 90.45-41.6L90.45-41.6Q91.15-41.55 91.97-41 92.8-40.45 93.5-39.68 94.2-38.9 94.67-38.05 95.15-37.2 95.15-36.5L95.15-36.5Q92.9-34.7 90.57-31.88 88.25-29.05 86.15-25.68 84.05-22.3 82.27-18.53 80.5-14.75 79.3-11.1L79.3-11.1Q80.9-13.85 82.65-16.1 84.4-18.35 86.15-19.95 87.9-21.55 89.57-22.43 91.25-23.3 92.75-23.35L92.75-23.35Q94.95-21.75 94.95-19.1L94.95-19.1Q94.95-17.5 94.3-15.88 93.65-14.25 92.57-12.88 91.5-11.5 90.12-10.53 88.75-9.55 87.25-9.25L87.25-9.25Q87.75-7.5 88.52-5.7 89.3-3.9 90.37-2.2 91.45-0.5 92.82 0.95 94.2 2.4 95.95 3.4L95.95 3.4Q95.7 3.9 95.2 4.4 94.7 4.9 94 5.28 93.3 5.65 92.47 5.88 91.65 6.1 90.85 6.1L90.85 6.1Q89.5 6.1 88.32 4.75 87.15 3.4 86.2 0.85L86.2 0.85Q85.45-1.2 84.75-4.05 84.05-6.9 83.5-10L83.5-10Q84.2-10.45 85.25-11.33 86.3-12.2 87.45-13.35L87.45-13.35Q91.85-17.6 91.85-20.7L91.85-20.7Q91.85-21.1 91.3-21.1L91.3-21.1Q90.3-21.05 88.95-20.15 87.6-19.25 86.07-17.65 84.55-16.05 82.97-13.9 81.4-11.75 79.95-9.25L79.95-9.25Q79.35-8.25 78.85-6.95 78.35-5.65 77.97-4.28 77.6-2.9 77.4-1.55 77.2-0.2 77.2 0.95L77.2 0.95Q77.2 1.65 77.35 2.1L77.35 2.1Q75.8 1.95 75.45 1.3L75.45 1.3Q75.05 0.7 74.77 0.33 74.5-0.05 74.2-0.3L74.2-0.3Q73.75-0.65 73.45-1.8 73.15-2.95 73.15-4.7ZM136.95-0.85L136.95-0.85Q136.95-2.6 137.3-4.98 137.65-7.35 138.32-10.05 139-12.75 139.92-15.7 140.85-18.65 142-21.6L142-21.6Q143-24.25 144.32-26.95 145.65-29.65 147.2-32.25 148.75-34.85 150.42-37.2 152.1-39.55 153.8-41.5L153.8-41.5Q154.6-41.5 155.52-41.3 156.45-41.1 157.32-40.78 158.2-40.45 158.92-40 159.65-39.55 160.1-39.1L160.1-39.1Q156.35-35.25 153.35-31.33 150.35-27.4 148.6-23.95L148.6-23.95Q147.65-22.05 146.87-20.4 146.1-18.75 145.45-17.13 144.8-15.5 144.27-13.88 143.75-12.25 143.3-10.45L143.3-10.45Q152.9-22.7 157.55-22.7L157.55-22.7Q158.85-22.7 160.35-21.85 161.85-21 163-19.55L163-19.55Q161.45-17.85 159.8-15.45 158.15-13.05 156.77-10.63 155.4-8.2 154.52-6.13 153.65-4.05 153.65-3.05L153.65-3.05Q153.65-2.55 153.8-2.38 153.95-2.2 154.45-2.2L154.45-2.2Q155.2-2.2 155.65-2.4 156.1-2.6 156.2-2.6L156.2-2.6Q156.45-2.2 156.5-2.05 156.55-1.9 156.55-1.8L156.55-1.8Q156.55-1.6 155.95-1.23 155.35-0.85 154.52-0.48 153.7-0.1 152.9 0.2 152.1 0.5 151.7 0.5L151.7 0.5Q151.2 0.5 150.7 0.23 150.2-0.05 149.82-0.5 149.45-0.95 149.22-1.5 149-2.05 149-2.65L149-2.65Q149-3.4 149.42-4.88 149.85-6.35 150.6-8.33 151.35-10.3 152.4-12.65 153.45-15 154.65-17.45L154.65-17.45Q154.65-17.65 154.45-17.65L154.45-17.65Q154.3-17.65 153.67-17.25 153.05-16.85 152.5-16.45L152.5-16.45Q150.7-15.1 148.87-13.13 147.05-11.15 145.32-8.8 143.6-6.45 142.07-3.83 140.55-1.2 139.45 1.45L139.45 1.45Q139.3 1.8 139 2.1 138.7 2.4 138.5 2.4L138.5 2.4Q138.35 2.4 138.07 2.05 137.8 1.7 137.57 1.18 137.35 0.65 137.15 0.1 136.95-0.45 136.95-0.85Z" opacity="1" transform="matrix(1,0,0,1,0,0)" fill="#0718c4" class="slogan-text-1" data-fill-palette-color="secondary" id="text-1"></path></svg></g></svg></g></svg></g></svg></g><g></g></svg></g><defs></defs></svg><rect width="272.23097519342457" height="247.2" fill="none" stroke="none" visibility="hidden"></rect></g></svg></g></svg>